# xmcd CD database file
#
# Track frame offsets:
#	150
#	18032
#	37847
#	56216
#	70245
#	90565
#	109672
#	127966
#	140378
#	162519
#	185134
#	206733
#	226011
#	227152
#
# Disc length: 3220 seconds
#
# Revision: 0
# Processed by: cddbd v1.5.1PL0 Copyright (c) Steve Scherf et al.
# Submitted via: CDex 1.51
#
DISCID=b80c920e
DTITLE=Dixie Chicks - Austin City Limits II - 8-15-00
DYEAR=2000
DGENRE=Country
TTITLE0=Ready To Run
TTITLE1=Hello Mr. Headache
TTITLE2=You Were Mine
TTITLE3=If I Fall ( You're Going Down With Me)
TTITLE4=Let Him Fly
TTITLE5=Heartbreak Town
TTITLE6=Strong Enough
TTITLE7=Lonesome Road (acapella)
TTITLE8=Sin Wagon
TTITLE9=Cowboy Take Me Away
TTITLE10=Goodbye Earl
TTITLE11=Wide Open Spaces
TTITLE12=Applause (Goodnight)
TTITLE13=Interview
EXTD=YEAR: 2000
EXTT0=
EXTT1=
EXTT2=
EXTT3=
EXTT4=
EXTT5=
EXTT6=
EXTT7=
EXTT8=
EXTT9=
EXTT10=
EXTT11=
EXTT12=
EXTT13=
PLAYORDER=
